<svg width="20" height="20" viewBox="0 0 20 20" fill="none" xmlns="http://www.w3.org/2000/svg">
<path d="M7.27408 6.79904C7.27356 6.32593 7.38887 5.86035 7.60932 5.44542C7.82977 5.03049 8.14822 4.67963 8.53519 4.42535C8.92215 4.17107 9.3651 4.02159 9.823 3.99076C10.2809 3.95994 10.7389 4.04876 11.1547 4.24901C11.5704 4.44925 11.9304 4.75444 12.2014 5.1363C12.4723 5.51815 12.6453 5.96432 12.7045 6.43348C12.7636 6.90263 12.707 7.37959 12.5398 7.82017C12.3726 8.26075 12.1002 8.65069 11.748 8.95388C11.2468 9.38643 10.6401 9.91401 10.1639 10.5257C9.68287 11.1394 9.28061 11.9075 9.28061 12.8251V13.6387C9.28061 13.8356 9.35647 14.0244 9.4915 14.1636C9.62654 14.3029 9.80968 14.3811 10.0007 14.3811C10.1916 14.3811 10.3748 14.3029 10.5098 14.1636C10.6448 14.0244 10.7207 13.8356 10.7207 13.6387V12.8251C10.7207 12.3767 10.9137 11.9313 11.2852 11.4561C11.6596 10.9771 12.1579 10.5366 12.6725 10.0922C13.2105 9.62867 13.6263 9.03271 13.8815 8.35947C14.1367 7.68624 14.223 6.9575 14.1324 6.24074C14.0418 5.52399 13.7772 4.84238 13.3632 4.25905C12.9492 3.67572 12.3992 3.20953 11.7639 2.90364C11.1287 2.59775 10.4289 2.46205 9.72933 2.50912C9.02974 2.55618 8.35297 2.78449 7.7617 3.1729C7.17043 3.5613 6.68378 4.09724 6.34682 4.7311C6.00985 5.36495 5.83346 6.07622 5.83399 6.79904C5.83399 6.99592 5.90985 7.18475 6.04488 7.32397C6.17992 7.46319 6.36306 7.5414 6.55403 7.5414C6.745 7.5414 6.92815 7.46319 7.06318 7.32397C7.19822 7.18475 7.27408 6.99592 7.27408 6.79904ZM9.99873 15.7183C9.76957 15.7183 9.54979 15.8122 9.38775 15.9792C9.22571 16.1463 9.13468 16.3729 9.13468 16.6092C9.13468 16.8454 9.22571 17.072 9.38775 17.2391C9.54979 17.4061 9.76957 17.5 9.99873 17.5C10.2279 17.5 10.4477 17.4061 10.6097 17.2391C10.7718 17.072 10.8628 16.8454 10.8628 16.6092C10.8628 16.3729 10.7718 16.1463 10.6097 15.9792C10.4477 15.8122 10.2279 15.7183 9.99873 15.7183Z" fill="white"/>
</svg>
