<svg width="14" height="14" viewBox="0 0 14 14" fill="none" xmlns="http://www.w3.org/2000/svg">
<g clip-path="url(#clip0_356_8383)">
<path d="M13.1055 0.790689L3.56349 8.74269M5.81149 11.0007L7.98949 13.1707C8.12325 13.3078 8.29048 13.4076 8.47464 13.4602C8.6588 13.5128 8.85351 13.5164 9.03949 13.4707C9.22646 13.427 9.39907 13.336 9.54074 13.2065C9.6824 13.0769 9.78838 12.913 9.84849 12.7307L13.4245 2.01069C13.4999 1.80981 13.5158 1.59148 13.4705 1.38177C13.4252 1.17206 13.3204 0.979823 13.1688 0.828004C13.0172 0.676186 12.8251 0.571199 12.6155 0.525572C12.4058 0.479946 12.1875 0.495608 11.9865 0.570689L1.26649 4.14769C1.07787 4.21208 0.909853 4.32563 0.77977 4.47663C0.649686 4.62764 0.562254 4.81062 0.526495 5.00669C0.489754 5.18518 0.497933 5.37 0.550297 5.54455C0.602661 5.7191 0.69757 5.8779 0.826495 6.00669L3.56349 8.74369L3.4735 12.2097L5.81149 11.0007Z" stroke="white" stroke-linecap="round" stroke-linejoin="round"/>
</g>
<defs>
<clipPath id="clip0_356_8383">
<rect width="14" height="14" fill="white"/>
</clipPath>
</defs>
</svg>
